<?xml version="1.0" encoding="UTF-8"?>
<svg xmlns="http://www.w3.org/2000/svg" width="45" height="45" viewBox="0 0 45 45" fill="none">
  <path d="M22.3066 40.3086C21.7803 41.6106 20.612 42.5175 20.1562 42.8284L22.3066 44.9984L24.457 42.8284C24.0012 42.511 22.833 41.6106 22.3066 40.3086Z" fill="#001D49"></path>
  <path d="M2.099 24.6151C2.41353 24.1552 3.30577 22.9762 4.59598 22.4451C3.36354 21.9333 2.49056 20.8451 2.14394 20.3398L0 22.5034L2.09258 24.6151H2.099Z" fill="#001D49"></path>
  <path d="M22.3049 4.57967C22.812 3.33597 23.8904 2.45502 24.3911 2.10523L22.3049 0L20.2188 2.10523C20.713 2.45502 21.7978 3.33597 22.3049 4.57967Z" fill="#001D49"></path>
  <path d="M40.0064 22.4451C41.2966 22.9762 42.1953 24.1552 42.5034 24.6151L44.596 22.5034L42.452 20.3398C42.1054 20.8386 41.2324 21.9333 40 22.4451H40.0064Z" fill="#001D49"></path>
  <path d="M21.7386 21.8942C21.7386 21.8942 14.5494 15.0733 10.4284 20.1906C9.45914 21.3955 8.5348 22.0886 7.6875 22.4319C8.5348 22.7752 9.45914 23.4618 10.4284 24.6731C14.5494 29.7905 21.7386 22.9695 21.7386 22.9695C21.7386 22.9695 14.9794 30.2245 20.0504 34.3831C21.2444 35.3612 21.9312 36.294 22.2714 37.149C22.6116 36.294 23.292 35.3612 24.4924 34.3831C29.5634 30.2245 22.8042 22.9695 22.8042 22.9695L22.8234 22.9501C22.8234 22.9501 30.0127 29.771 34.1337 24.6537C35.1029 23.4489 36.0273 22.7558 36.8746 22.4125C36.0273 22.0691 35.1029 21.3825 34.1337 20.1712C30.7059 15.9089 25.1599 19.9121 23.3883 21.3825L22.8234 21.8748C22.8234 21.8748 29.5826 14.6199 24.5116 10.4613C23.3177 9.48313 22.6309 8.55036 22.2907 7.69531C21.9505 8.55036 21.27 9.48313 20.0697 10.4613C14.9987 14.6199 21.7579 21.8748 21.7579 21.8748L21.7386 21.8942Z" fill="#001D49"></path>
  <path d="M16.0054 16.1683C16.0054 16.1683 15.9412 16.1294 15.9091 16.1035C13.4699 14.5424 9.9844 14.0696 6.60161 15.8703C6.54384 15.9027 6.47965 15.9351 6.42188 15.9675L6.56309 15.825L15.6909 6.61383L15.8385 6.46484C15.8 6.52962 15.7679 6.5944 15.7358 6.65917C13.9513 10.0729 14.4071 13.6032 15.954 16.0647C15.954 16.0647 15.9926 16.1294 16.0118 16.1618L16.0054 16.1683Z" fill="#001D49"></path>
  <path d="M28.5234 28.7994C28.5234 28.7994 28.562 28.8642 28.5876 28.8966C30.1346 31.3581 30.6032 34.8754 28.8187 38.2892C28.7866 38.3475 28.7545 38.4122 28.7224 38.4705L28.8636 38.328L37.9914 29.1168L38.1391 28.9679C38.0749 29.0067 38.0107 29.0391 37.9465 29.0715C34.5637 30.8723 31.0654 30.4124 28.6261 28.8513C28.6261 28.8513 28.562 28.8124 28.5299 28.793L28.5234 28.7994Z" fill="#001D49"></path>
  <path d="M28.5234 16.1476C28.5234 16.1476 28.562 16.0829 28.5876 16.0505C30.1346 13.589 30.6032 10.0716 28.8187 6.65794C28.7866 6.59964 28.7545 6.53486 28.7224 6.47656L28.8636 6.61907L37.9914 15.8302L38.1391 15.9792C38.0749 15.9404 38.0107 15.908 37.9465 15.8756C34.5637 14.0748 31.0654 14.5347 28.6261 16.0958C28.6261 16.0958 28.562 16.1347 28.5299 16.1541L28.5234 16.1476Z" fill="#001D49"></path>
  <path d="M16.0054 28.7734C16.0054 28.7734 15.9412 28.8123 15.9091 28.8382C13.4699 30.3993 9.9844 30.8722 6.60161 29.0714C6.54384 29.039 6.47965 29.0066 6.42188 28.9742L6.56309 29.1168L15.6909 38.3279L15.8385 38.4769C15.8 38.4121 15.7679 38.3474 15.7358 38.2826C13.9513 34.8689 14.4071 31.3386 15.954 28.8771C15.954 28.8771 15.9926 28.8123 16.0118 28.7799L16.0054 28.7734Z" fill="#001D49"></path>
</svg>
