<?xml version="1.0" encoding="UTF-8"?>
<svg xmlns="http://www.w3.org/2000/svg" width="339" height="190" viewBox="0 0 339 190" fill="none">
  <g clip-path="url(#clip0_567_1759)">
    <path d="M325.031 112.036C325.031 111.118 325.205 110.235 325.569 109.42C325.933 108.606 326.435 107.896 327.059 107.29C327.683 106.683 328.411 106.216 329.261 105.852C330.11 105.488 331.011 105.332 331.965 105.332C332.918 105.332 333.819 105.505 334.668 105.852C335.518 106.198 336.246 106.683 336.87 107.29C337.494 107.896 337.996 108.606 338.36 109.42C338.724 110.235 338.915 111.101 338.915 112.036C338.915 112.972 338.742 113.838 338.36 114.652C337.996 115.467 337.494 116.177 336.87 116.783C336.246 117.389 335.518 117.857 334.668 118.221C333.819 118.585 332.918 118.741 331.965 118.741C331.011 118.741 330.11 118.567 329.261 118.221C328.411 117.875 327.683 117.389 327.059 116.783C326.435 116.177 325.933 115.467 325.569 114.652C325.205 113.838 325.031 112.972 325.031 112.036ZM337.528 112.036C337.528 111.291 337.39 110.581 337.095 109.906C336.8 109.247 336.402 108.658 335.899 108.173C335.396 107.688 334.807 107.29 334.131 106.995C333.455 106.701 332.727 106.562 331.965 106.562C331.202 106.562 330.474 106.701 329.798 106.995C329.122 107.29 328.533 107.671 328.03 108.173C327.527 108.658 327.129 109.247 326.834 109.906C326.539 110.564 326.401 111.274 326.401 112.036C326.401 112.799 326.539 113.492 326.834 114.167C327.129 114.826 327.527 115.415 328.03 115.9C328.533 116.385 329.122 116.783 329.798 117.078C330.474 117.372 331.202 117.511 331.965 117.511C332.727 117.511 333.455 117.372 334.131 117.078C334.807 116.783 335.396 116.402 335.899 115.9C336.402 115.397 336.8 114.826 337.095 114.167C337.39 113.509 337.528 112.799 337.528 112.036ZM329.347 115.934V108.138H332.415C334.27 108.138 335.188 108.866 335.188 110.339C335.188 110.702 335.136 111.014 335.032 111.274C334.928 111.534 334.772 111.742 334.582 111.915C334.391 112.088 334.166 112.227 333.923 112.314C333.68 112.4 333.403 112.469 333.126 112.504L335.448 115.917H333.923L331.601 112.539H330.63V115.917H329.365L329.347 115.934ZM330.613 109.247V111.447H332.051C332.675 111.447 333.143 111.361 333.455 111.188C333.767 111.014 333.923 110.702 333.923 110.287C333.923 109.923 333.785 109.663 333.507 109.507C333.23 109.334 332.883 109.265 332.45 109.265H330.613V109.247Z" fill="#101F45"></path>
    <path d="M21.9091 109.074C20.5745 107.689 19.0838 106.718 17.4545 106.181C15.8079 105.644 13.9185 105.367 11.7692 105.367H0V158.205H7.8346V137.572H11.8386C14.7679 137.572 17.1078 137.087 18.9105 136.117C20.6958 135.147 22.1345 133.813 23.2091 132.081C24.1278 130.643 24.7344 129.118 25.0118 127.472C25.2891 125.844 25.4278 123.834 25.4278 121.461C25.4278 118.291 25.1678 115.779 24.6651 113.925C24.1451 112.072 23.2265 110.443 21.8918 109.057L21.9091 109.074ZM17.9572 125.168C17.8878 126.26 17.6278 127.178 17.2292 127.906C16.8132 128.702 16.1719 129.309 15.3052 129.759C14.4385 130.21 13.2079 130.435 11.6132 130.435H7.85193V112.47H11.9252C13.4679 112.47 14.6465 112.695 15.4612 113.146C16.2759 113.596 16.8998 114.237 17.2985 115.069C17.7145 115.917 17.9398 116.888 17.9918 117.996C18.0438 119.105 18.0612 120.283 18.0612 121.513C18.0612 122.847 18.0265 124.06 17.9398 125.151L17.9572 125.168Z" fill="#101F45"></path>
    <path d="M60.1089 134.073C62.6223 132.756 64.3729 130.989 65.3782 128.806C66.3836 126.624 66.8862 123.99 66.8862 120.872C66.8862 110.53 62.2756 105.367 53.0543 105.367H40.4531V158.205H48.2877V135.649H48.3744L60.2823 158.205H68.5849L56.573 135.424C57.6823 135.216 58.6703 134.852 60.1436 134.09L60.1089 134.073ZM48.2704 112.487H52.3437C55.065 112.487 56.9023 113.18 57.873 114.566C58.341 115.311 58.6356 116.195 58.7916 117.199C58.9476 118.222 59.017 119.382 59.017 120.716C59.017 122.05 58.9476 123.228 58.7916 124.233C58.6356 125.255 58.3583 126.104 57.9423 126.797C57.4743 127.49 56.833 128.027 56.0183 128.391C55.2037 128.754 54.0943 128.945 52.7077 128.945H48.2531V112.47L48.2704 112.487Z" fill="#101F45"></path>
    <path d="M156.845 142.232H156.689L150.467 105.367H142.164L153.309 158.188H160.225L171.44 105.367H163.137L156.845 142.232Z" fill="#101F45"></path>
    <path d="M185.289 158.188H208.654V150.617H193.124V128.633H206.661V121.513H193.124V112.487H208.654V105.367H185.289V158.188Z" fill="#101F45"></path>
    <path d="M242.095 137.191H241.939L230.118 105.367H222.578V158.188H230.413V126.433H230.569L242.563 158.188H249.947V105.367H242.095V137.191Z" fill="#101F45"></path>
    <path d="M264.397 112.487H278.385L263.617 151.518V158.188H286.913V151.068H271.85L286.913 111.379V105.367H264.397V112.487Z" fill="#101F45"></path>
    <path d="M316.122 105.367H309.587L297.367 158.205H305.202L307.507 146.858H318.184L320.49 158.205H328.324L316.104 105.367H316.122ZM308.894 139.72L312.742 120.578H312.898L316.746 139.72H308.911H308.894Z" fill="#101F45"></path>
    <path d="M105.872 104.656C98.6959 104.656 92.092 107.567 87.1347 112.695C82.316 117.753 79.6641 124.544 79.6641 131.837C79.6641 139.131 82.316 145.904 87.1347 151.05C92.092 156.247 98.7652 159.088 105.872 159.088C112.978 159.088 119.738 156.247 124.678 151.05C129.497 145.922 132.218 139.131 132.218 131.837C132.218 124.544 129.497 117.77 124.678 112.695C119.721 107.567 113.048 104.656 105.872 104.656ZM105.872 151.171C95.6106 151.171 87.5507 142.717 87.5507 131.82C87.5507 120.923 95.5933 112.487 105.872 112.487C116.15 112.487 124.332 121.01 124.332 131.82C124.332 142.63 116.22 151.171 105.872 151.171Z" fill="#101F45"></path>
    <path d="M85.0873 189.475H83.8047V177.227H87.5313C88.1553 177.227 88.7273 177.279 89.2646 177.4C89.802 177.521 90.2526 177.712 90.6513 177.954C91.0326 178.214 91.3446 178.561 91.5526 178.959C91.7606 179.375 91.8819 179.877 91.8819 180.483C91.8819 180.934 91.7953 181.35 91.622 181.713C91.4486 182.077 91.2233 182.406 90.946 182.666C90.6686 182.943 90.322 183.151 89.9233 183.307C89.5246 183.463 89.0913 183.567 88.6233 183.619L92.3326 189.457H90.7553L87.2367 183.723H85.0873V189.457V189.475ZM85.0873 182.666H87.3233C88.3633 182.666 89.1606 182.493 89.7326 182.129C90.2873 181.765 90.5646 181.228 90.5646 180.501C90.5646 180.102 90.4953 179.756 90.3393 179.479C90.1833 179.201 89.9753 178.976 89.698 178.803C89.4206 178.63 89.0913 178.509 88.6926 178.422C88.294 178.335 87.8607 178.301 87.3927 178.301H85.0873V182.684V182.666Z" fill="#101F45"></path>
    <path d="M100.494 188.366H107.288V189.475H99.2109V177.227H107.08V178.335H100.494V182.545H106.647V183.654H100.494V188.383V188.366Z" fill="#101F45"></path>
    <path d="M120.619 179.183C120.342 178.82 119.995 178.508 119.562 178.3C119.128 178.092 118.608 177.971 118.002 177.971C117.69 177.971 117.378 178.023 117.048 178.109C116.719 178.196 116.424 178.352 116.164 178.525C115.904 178.716 115.696 178.958 115.523 179.253C115.367 179.547 115.28 179.876 115.28 180.275C115.28 180.673 115.35 180.985 115.506 181.245C115.662 181.505 115.87 181.713 116.13 181.886C116.39 182.059 116.684 182.215 117.014 182.336C117.343 182.458 117.69 182.562 118.036 182.683C118.47 182.821 118.92 182.977 119.371 183.133C119.822 183.289 120.22 183.497 120.584 183.757C120.948 184.017 121.243 184.346 121.468 184.744C121.694 185.143 121.815 185.645 121.815 186.252C121.815 186.858 121.694 187.395 121.451 187.828C121.208 188.279 120.896 188.642 120.515 188.92C120.134 189.197 119.683 189.422 119.198 189.56C118.712 189.699 118.21 189.768 117.707 189.768C117.326 189.768 116.944 189.734 116.563 189.664C116.182 189.595 115.818 189.474 115.471 189.318C115.124 189.162 114.795 188.971 114.5 188.746C114.206 188.521 113.928 188.244 113.703 187.949L114.812 187.152C115.09 187.586 115.471 187.949 115.974 188.244C116.476 188.538 117.048 188.694 117.724 188.694C118.036 188.694 118.366 188.642 118.712 188.538C119.042 188.434 119.354 188.296 119.614 188.088C119.874 187.88 120.099 187.638 120.272 187.343C120.446 187.049 120.532 186.702 120.532 186.321C120.532 185.888 120.446 185.541 120.272 185.264C120.099 184.987 119.874 184.744 119.579 184.554C119.284 184.363 118.955 184.207 118.591 184.086C118.227 183.965 117.828 183.826 117.43 183.705C117.014 183.584 116.598 183.428 116.199 183.272C115.783 183.116 115.419 182.908 115.107 182.648C114.778 182.388 114.518 182.077 114.327 181.695C114.136 181.314 114.032 180.847 114.032 180.292C114.032 179.703 114.154 179.201 114.396 178.768C114.639 178.335 114.968 177.988 115.35 177.711C115.748 177.434 116.182 177.226 116.65 177.105C117.135 176.983 117.603 176.914 118.071 176.914C118.938 176.914 119.666 177.053 120.272 177.347C120.879 177.642 121.347 177.988 121.659 178.387L120.636 179.183H120.619Z" fill="#101F45"></path>
    <path d="M130.533 189.475H129.25V177.227H130.533V189.475Z" fill="#101F45"></path>
    <path d="M138.578 177.209H142.79C143.57 177.209 144.367 177.33 145.165 177.59C145.962 177.85 146.673 178.231 147.314 178.733C147.955 179.253 148.475 179.894 148.857 180.656C149.255 181.418 149.446 182.319 149.446 183.324C149.446 184.329 149.255 185.247 148.857 186.009C148.458 186.772 147.938 187.412 147.314 187.915C146.673 188.435 145.962 188.816 145.165 189.058C144.367 189.318 143.57 189.439 142.79 189.439H138.578V177.191V177.209ZM139.861 188.348H142.426C143.379 188.348 144.211 188.209 144.922 187.915C145.633 187.62 146.222 187.257 146.69 186.789C147.158 186.321 147.505 185.784 147.73 185.195C147.955 184.589 148.077 183.982 148.077 183.341C148.077 182.7 147.955 182.094 147.73 181.488C147.505 180.881 147.141 180.362 146.69 179.894C146.222 179.426 145.633 179.045 144.922 178.768C144.211 178.473 143.379 178.335 142.426 178.335H139.861V188.365V188.348Z" fill="#101F45"></path>
    <path d="M158.095 188.366H164.89V189.475H156.812V177.227H164.682V178.335H158.095V182.545H164.248V183.654H158.095V188.383V188.366Z" fill="#101F45"></path>
    <path d="M181.082 187.656H181.117V177.227H182.399V189.475H180.787L173.403 178.942H173.369V189.475H172.086V177.227H173.698L181.082 187.656Z" fill="#101F45"></path>
    <path d="M201.119 187.482C200.911 187.793 200.651 188.088 200.339 188.365C200.027 188.642 199.68 188.885 199.282 189.093C198.883 189.301 198.432 189.474 197.947 189.595C197.462 189.716 196.942 189.786 196.37 189.786C195.416 189.786 194.532 189.63 193.718 189.301C192.903 188.971 192.21 188.521 191.62 187.967C191.031 187.395 190.58 186.719 190.251 185.922C189.922 185.143 189.766 184.277 189.766 183.341C189.766 182.406 189.939 181.54 190.268 180.76C190.598 179.98 191.066 179.305 191.655 178.733C192.244 178.161 192.938 177.711 193.752 177.399C194.55 177.07 195.434 176.914 196.387 176.914C196.855 176.914 197.306 176.966 197.756 177.053C198.207 177.139 198.623 177.278 199.022 177.451C199.42 177.624 199.767 177.815 200.096 178.057C200.426 178.3 200.686 178.56 200.911 178.872L199.836 179.634C199.698 179.443 199.524 179.235 199.316 179.045C199.091 178.854 198.831 178.681 198.536 178.525C198.242 178.369 197.912 178.248 197.566 178.161C197.202 178.075 196.838 178.023 196.422 178.023C195.59 178.023 194.862 178.161 194.203 178.456C193.544 178.75 193.007 179.132 192.539 179.617C192.088 180.102 191.742 180.673 191.499 181.314C191.256 181.955 191.135 182.631 191.135 183.359C191.135 184.086 191.256 184.744 191.499 185.403C191.742 186.044 192.088 186.615 192.556 187.1C193.007 187.586 193.562 187.984 194.22 188.261C194.879 188.556 195.607 188.694 196.422 188.694C197.15 188.694 197.843 188.556 198.502 188.261C199.16 187.967 199.698 187.516 200.148 186.875L201.154 187.499L201.119 187.482Z" fill="#101F45"></path>
    <path d="M209.298 189.475H208.016V177.227H209.298V189.475Z" fill="#101F45"></path>
    <path d="M217.234 189.475H215.812L221.307 177.227H222.555L227.998 189.475H226.559L225.155 186.252H218.586L217.199 189.475H217.234ZM219.106 185.109H224.687L221.896 178.595L219.106 185.109Z" fill="#101F45"></path>
    <path d="M235.831 188.366H241.742V189.475H234.531V177.227H235.814V188.366H235.831Z" fill="#101F45"></path>
    <path d="M160.748 67.2695C159.864 69.4523 157.888 70.9595 157.125 71.4792L160.748 75.0999L164.37 71.4792C163.59 70.9595 161.632 69.4523 160.748 67.2695Z" fill="#101F45"></path>
    <path d="M126.708 41.0749C127.228 40.2954 128.736 38.3378 130.92 37.4542C128.84 36.6054 127.367 34.7864 126.777 33.9375L123.172 37.5409L126.708 41.0749Z" fill="#101F45"></path>
    <path d="M160.753 7.64153C161.602 5.56266 163.422 4.09013 164.272 3.50112L160.753 -0.015625L157.234 3.50112C158.066 4.09013 159.904 5.56266 160.753 7.64153Z" fill="#101F45"></path>
    <path d="M190.602 37.4542C192.786 38.3378 194.294 40.3127 194.814 41.0749L198.349 37.5409L194.744 33.9375C194.155 34.769 192.682 36.6054 190.602 37.4542Z" fill="#101F45"></path>
    <path d="M159.812 36.5367C159.812 36.5367 147.696 25.1549 140.745 33.6956C139.116 35.7052 137.556 36.8659 136.117 37.4375C137.556 38.0092 139.098 39.1526 140.745 41.1795C147.696 49.7202 159.812 38.3384 159.812 38.3384C159.812 38.3384 148.424 50.4478 156.969 57.3946C158.98 59.0231 160.141 60.5822 160.713 62.0201C161.285 60.5822 162.429 59.0404 164.457 57.3946C173.002 50.4478 161.614 38.3384 161.614 38.3384L161.649 38.3037C161.649 38.3037 173.765 49.6855 180.715 41.1449C182.345 39.1353 183.905 37.9746 185.343 37.4029C183.905 36.8312 182.362 35.6878 180.715 33.6609C174.944 26.5581 165.584 33.2278 162.602 35.6878L161.649 36.5021C161.649 36.5021 173.037 24.3927 164.492 17.4458C162.481 15.8173 161.32 14.2582 160.748 12.8203C160.176 14.2582 159.032 15.8 157.004 17.4458C148.458 24.3927 159.846 36.5021 159.846 36.5021L159.812 36.5367Z" fill="#101F45"></path>
    <path d="M150.139 26.9913C150.139 26.9913 150.035 26.922 149.983 26.8874C145.875 24.2888 139.999 23.4919 134.296 26.5062C134.192 26.5582 134.088 26.6102 133.984 26.6795L134.227 26.4369L149.602 11.0707L149.844 10.8281C149.792 10.9321 149.723 11.036 149.671 11.1573C146.672 16.8568 147.435 22.747 150.035 26.8527C150.035 26.8527 150.104 26.9567 150.139 27.0086V26.9913Z" fill="#101F45"></path>
    <path d="M171.236 48.0742C171.236 48.0742 171.305 48.1782 171.34 48.2301C173.94 52.3359 174.737 58.2087 171.721 63.9082C171.669 64.0122 171.617 64.1161 171.548 64.2201L171.791 63.9775L187.165 48.6113L187.408 48.3687C187.304 48.4207 187.2 48.49 187.079 48.542C181.376 51.539 175.483 50.7767 171.375 48.1782C171.375 48.1782 171.271 48.1089 171.219 48.0742H171.236Z" fill="#101F45"></path>
    <path d="M171.236 26.9584C171.236 26.9584 171.305 26.8544 171.34 26.8024C173.94 22.6967 174.737 16.8239 171.721 11.1243C171.669 11.0204 171.617 10.9164 171.548 10.8125L171.791 11.055L187.165 26.4213L187.408 26.6638C187.304 26.6119 187.2 26.5426 187.079 26.4906C181.376 23.4936 175.483 24.2558 171.375 26.8544C171.375 26.8544 171.271 26.9237 171.219 26.9584H171.236Z" fill="#101F45"></path>
    <path d="M150.139 48.0251C150.139 48.0251 150.035 48.0944 149.983 48.1291C145.875 50.7277 139.999 51.5246 134.296 48.5102C134.192 48.4582 134.088 48.4063 133.984 48.337L134.227 48.5795L149.602 63.9458L149.844 64.1883C149.792 64.0844 149.723 63.9804 149.671 63.8592C146.672 58.1596 147.435 52.2695 150.035 48.1637C150.035 48.1637 150.104 48.0598 150.139 48.0078V48.0251Z" fill="#101F45"></path>
  </g>
  <defs>
    <clipPath id="clip0_567_1759">
      <rect width="338.898" height="189.783" fill="white"></rect>
    </clipPath>
  </defs>
</svg>
