<?xml version="1.0" encoding="UTF-8"?>
<svg xmlns="http://www.w3.org/2000/svg" width="380" height="88" viewBox="0 0 380 88" fill="none">
  <path d="M143.562 86.8325V76.0625H147.573C148.613 76.0625 149.523 76.2725 150.333 76.7025C151.133 77.1325 151.763 77.7425 152.223 78.5425C152.683 79.3425 152.902 80.3125 152.902 81.4425C152.902 82.5725 152.673 83.5425 152.223 84.3425C151.773 85.1425 151.133 85.7625 150.333 86.1825C149.533 86.6125 148.613 86.8225 147.573 86.8225H143.562V86.8325ZM145.243 85.3225H147.573C148.343 85.3225 148.983 85.1625 149.503 84.8425C150.023 84.5225 150.413 84.0725 150.673 83.4925C150.933 82.9125 151.073 82.2325 151.073 81.4525C151.073 80.6725 150.943 79.9925 150.673 79.4125C150.413 78.8325 150.013 78.3825 149.503 78.0625C148.983 77.7425 148.343 77.5825 147.573 77.5825H145.243V85.3325V85.3225Z" fill="#0B796E"></path>
  <path d="M161.469 86.8325V76.0625H168.179V77.6325H163.169V80.4225H167.119V81.9925H163.169V85.2625H168.319V86.8325H161.469Z" fill="#0B796E"></path>
  <path d="M179.956 87.0494C179.516 87.0494 179.066 87.0094 178.616 86.9394C178.166 86.8694 177.746 86.7694 177.356 86.6594C176.976 86.5494 176.656 86.4294 176.406 86.3194L176.626 84.5394C176.936 84.6894 177.296 84.8394 177.686 84.9894C178.076 85.1294 178.496 85.2494 178.926 85.3494C179.366 85.4494 179.806 85.4994 180.246 85.4994C180.866 85.4994 181.366 85.3794 181.726 85.1494C182.086 84.9194 182.276 84.5494 182.276 84.0594C182.276 83.6894 182.176 83.3894 181.986 83.1594C181.796 82.9294 181.496 82.7194 181.106 82.5494C180.716 82.3794 180.216 82.1994 179.606 82.0094C179.026 81.8294 178.496 81.6094 178.016 81.3594C177.536 81.1094 177.156 80.7894 176.866 80.3894C176.576 79.9894 176.436 79.4694 176.436 78.8294C176.436 78.2494 176.586 77.7394 176.876 77.2894C177.176 76.8394 177.606 76.4894 178.176 76.2394C178.746 75.9894 179.456 75.8594 180.306 75.8594C180.996 75.8594 181.636 75.9394 182.226 76.0894C182.816 76.2394 183.316 76.3994 183.716 76.5794L183.546 78.3294C182.956 78.0094 182.386 77.7794 181.856 77.6394C181.326 77.4994 180.776 77.4194 180.226 77.4194C179.616 77.4194 179.136 77.5294 178.756 77.7394C178.386 77.9594 178.196 78.2994 178.196 78.7594C178.196 79.0994 178.286 79.3694 178.466 79.5794C178.646 79.7894 178.906 79.9694 179.256 80.1094C179.606 80.2594 180.026 80.4094 180.536 80.5694C181.296 80.7994 181.946 81.0594 182.486 81.3494C183.016 81.6394 183.426 81.9994 183.706 82.4194C183.986 82.8394 184.126 83.3594 184.126 83.9794C184.126 84.3794 184.056 84.7594 183.916 85.1294C183.776 85.4994 183.546 85.8194 183.216 86.1094C182.896 86.3994 182.466 86.6294 181.926 86.7894C181.386 86.9594 180.726 87.0394 179.936 87.0394L179.956 87.0494Z" fill="#0B796E"></path>
  <path d="M195.911 77.7025H196.371L193.151 86.8325H191.461L195.311 76.0625H196.991L200.841 86.8325H199.151L195.931 77.7025H195.911ZM198.431 84.0825H193.861V82.5825H198.431V84.0825Z" fill="#0B796E"></path>
  <path d="M208.893 86.8325V76.0625H212.573C213.323 76.0625 213.973 76.1825 214.533 76.4125C215.093 76.6425 215.523 77.0025 215.833 77.4825C216.143 77.9625 216.293 78.5825 216.293 79.3325C216.293 80.0825 216.133 80.7125 215.803 81.2025C215.473 81.6925 215.023 82.0725 214.433 82.3525L216.853 86.8325H214.893L212.753 82.7225H210.603V86.8325H208.883H208.893ZM210.613 81.2625H212.343C213.103 81.2625 213.663 81.0925 214.013 80.7425C214.363 80.4025 214.543 79.9425 214.543 79.3725C214.543 78.8025 214.373 78.3225 214.023 78.0025C213.673 77.6725 213.123 77.5125 212.373 77.5125H210.613V81.2625Z" fill="#0B796E"></path>
  <path d="M225.096 86.8325V76.0625H228.776C229.526 76.0625 230.176 76.1825 230.736 76.4125C231.296 76.6425 231.726 77.0025 232.036 77.4825C232.346 77.9625 232.496 78.5825 232.496 79.3325C232.496 80.0825 232.336 80.7125 232.006 81.2025C231.676 81.6825 231.226 82.0725 230.636 82.3525L233.056 86.8325H231.096L228.956 82.7225H226.806V86.8325H225.086H225.096ZM226.816 81.2625H228.546C229.306 81.2625 229.866 81.0925 230.216 80.7425C230.566 80.4025 230.746 79.9425 230.746 79.3725C230.746 78.8025 230.576 78.3225 230.226 78.0025C229.876 77.6725 229.326 77.5125 228.576 77.5125H226.816V81.2625Z" fill="#0B796E"></path>
  <path d="M245.972 87.0516C244.942 87.0516 244.032 86.8216 243.232 86.3616C242.432 85.9016 241.802 85.2516 241.352 84.4116C240.892 83.5716 240.672 82.5916 240.672 81.4516C240.672 80.3116 240.902 79.3316 241.352 78.4916C241.812 77.6516 242.432 77.0016 243.232 76.5416C244.032 76.0816 244.942 75.8516 245.972 75.8516C247.002 75.8516 247.912 76.0816 248.712 76.5416C249.512 77.0016 250.142 77.6516 250.592 78.4916C251.052 79.3316 251.272 80.3116 251.272 81.4516C251.272 82.5916 251.042 83.5716 250.592 84.4116C250.132 85.2516 249.512 85.9016 248.712 86.3616C247.912 86.8216 247.002 87.0516 245.972 87.0516ZM245.972 85.4316C246.752 85.4316 247.402 85.2616 247.922 84.9116C248.442 84.5616 248.842 84.0916 249.102 83.4816C249.362 82.8816 249.502 82.2016 249.502 81.4516C249.502 80.7016 249.372 80.0316 249.102 79.4216C248.842 78.8216 248.442 78.3416 247.922 77.9916C247.402 77.6416 246.752 77.4716 245.972 77.4716C245.192 77.4716 244.542 77.6416 244.022 77.9916C243.502 78.3416 243.102 78.8116 242.842 79.4216C242.582 80.0316 242.442 80.7016 242.442 81.4516C242.442 82.2016 242.572 82.8716 242.842 83.4816C243.112 84.0916 243.502 84.5616 244.022 84.9116C244.542 85.2616 245.192 85.4316 245.972 85.4316Z" fill="#0B796E"></path>
  <path d="M259.836 86.8325V76.0625H261.516V85.3225H266.236V86.8325H259.836Z" fill="#0B796E"></path>
  <path d="M274.305 86.8325V76.0625H275.985V85.3225H280.705V86.8325H274.305Z" fill="#0B796E"></path>
  <path d="M293.152 87.0516C292.122 87.0516 291.212 86.8216 290.412 86.3616C289.612 85.9016 288.982 85.2516 288.532 84.4116C288.082 83.5716 287.852 82.5916 287.852 81.4516C287.852 80.3116 288.082 79.3316 288.532 78.4916C288.992 77.6516 289.612 77.0016 290.412 76.5416C291.212 76.0816 292.122 75.8516 293.152 75.8516C294.182 75.8516 295.092 76.0816 295.892 76.5416C296.692 77.0016 297.322 77.6516 297.772 78.4916C298.232 79.3316 298.452 80.3116 298.452 81.4516C298.452 82.5916 298.222 83.5716 297.772 84.4116C297.312 85.2516 296.692 85.9016 295.892 86.3616C295.092 86.8216 294.182 87.0516 293.152 87.0516ZM293.152 85.4316C293.932 85.4316 294.582 85.2616 295.102 84.9116C295.622 84.5616 296.022 84.0916 296.282 83.4816C296.542 82.8716 296.682 82.2016 296.682 81.4516C296.682 80.7016 296.552 80.0316 296.282 79.4216C296.012 78.8116 295.622 78.3416 295.102 77.9916C294.582 77.6416 293.932 77.4716 293.152 77.4716C292.372 77.4716 291.722 77.6416 291.202 77.9916C290.682 78.3416 290.282 78.8116 290.022 79.4216C289.762 80.0316 289.622 80.7016 289.622 81.4516C289.622 82.2016 289.752 82.8716 290.022 83.4816C290.292 84.0916 290.682 84.5616 291.202 84.9116C291.722 85.2616 292.372 85.4316 293.152 85.4316Z" fill="#0B796E"></path>
  <path d="M310.12 87.0494C309.68 87.0494 309.23 87.0094 308.78 86.9394C308.33 86.8694 307.91 86.7694 307.52 86.6594C307.14 86.5494 306.82 86.4294 306.57 86.3194L306.79 84.5394C307.1 84.6894 307.46 84.8394 307.85 84.9894C308.24 85.1294 308.66 85.2494 309.09 85.3494C309.53 85.4494 309.97 85.4994 310.41 85.4994C311.03 85.4994 311.53 85.3794 311.89 85.1494C312.25 84.9194 312.44 84.5494 312.44 84.0594C312.44 83.6894 312.34 83.3894 312.15 83.1594C311.96 82.9294 311.66 82.7194 311.27 82.5494C310.88 82.3794 310.38 82.1994 309.77 82.0094C309.19 81.8294 308.66 81.6094 308.18 81.3594C307.7 81.1094 307.32 80.7894 307.03 80.3894C306.74 79.9894 306.6 79.4694 306.6 78.8294C306.6 78.2494 306.75 77.7394 307.04 77.2894C307.34 76.8394 307.77 76.4894 308.34 76.2394C308.91 75.9894 309.62 75.8594 310.47 75.8594C311.16 75.8594 311.8 75.9394 312.39 76.0894C312.98 76.2394 313.48 76.3994 313.88 76.5794L313.71 78.3294C313.12 78.0094 312.55 77.7794 312.02 77.6394C311.49 77.4994 310.94 77.4194 310.39 77.4194C309.78 77.4194 309.3 77.5294 308.92 77.7394C308.54 77.9494 308.36 78.2994 308.36 78.7594C308.36 79.0994 308.45 79.3694 308.63 79.5794C308.81 79.7894 309.07 79.9694 309.42 80.1094C309.77 80.2594 310.19 80.4094 310.7 80.5694C311.46 80.7994 312.11 81.0594 312.65 81.3494C313.18 81.6394 313.59 81.9994 313.87 82.4194C314.15 82.8394 314.29 83.3594 314.29 83.9794C314.29 84.3794 314.22 84.7594 314.08 85.1294C313.94 85.4894 313.71 85.8194 313.38 86.1094C313.06 86.3994 312.63 86.6294 312.09 86.7894C311.55 86.9594 310.89 87.0394 310.1 87.0394L310.12 87.0494Z" fill="#0B796E"></path>
  <path d="M379.32 16.0908C379.32 19.5808 376.74 22.1308 373.25 22.1308C369.76 22.1308 367.18 19.5808 367.18 16.0908C367.18 12.6008 369.76 10.0508 373.25 10.0508C376.74 10.0508 379.32 12.6008 379.32 16.0908ZM377.61 16.0908C377.61 13.4108 375.93 11.5308 373.25 11.5308C370.57 11.5308 368.89 13.4108 368.89 16.0908C368.89 18.7708 370.57 20.6508 373.25 20.6508C375.93 20.6508 377.61 18.7708 377.61 16.0908ZM374.22 16.3208L376.1 19.1008H374.56L372.85 16.6208H372.48V19.1008H371.14V12.7608H373.02C374.63 12.7608 375.27 13.6708 375.27 14.7108C375.27 15.5508 374.8 16.0508 374.23 16.3208H374.22ZM372.48 15.5808H372.75C373.39 15.5808 373.86 15.3508 373.86 14.7108C373.86 14.0708 373.39 13.8408 372.75 13.8408H372.48V15.5808Z" fill="#0B796E"></path>
  <path d="M105.7 17.63V32.45H138.05V40.08H105.7V54.62H139.48V62.25H98V10H139.48V17.63H105.7Z" fill="#0B796E"></path>
  <path d="M185.23 17.7H168.34V62.24H160.64V17.7H143.75V10H185.23V17.7Z" fill="#0B796E"></path>
  <path d="M197.919 17.63V32.45H230.269V40.08H197.919V54.62H231.699V62.25H190.219V10H231.699V17.63H197.919Z" fill="#0B796E"></path>
  <path d="M255.357 40.72H244.387V62.24H236.688V10H261.277C265.557 10 269.327 11.71 272.107 14.49C274.887 17.34 276.597 21.12 276.597 25.39C276.597 29.1 275.317 32.52 273.107 35.15C270.827 37.79 267.768 39.78 264.268 40.42L278.167 62.23H269.048L255.367 40.71L255.357 40.72ZM244.387 33.02H261.277C263.347 33.02 265.267 32.16 266.697 30.74C268.127 29.39 268.977 27.46 268.977 25.4C268.977 23.34 268.127 21.34 266.697 19.91C265.267 18.56 263.347 17.7 261.277 17.7H244.387V33.02Z" fill="#0B796E"></path>
  <path d="M280.297 10H287.997V62.24H280.297V10ZM287.997 10H296.117L314.077 62.24H305.957L287.997 10ZM314.077 10H321.777V62.24H314.077V10Z" fill="#0B796E"></path>
  <path d="M379.138 62.24H370.938L365.448 46.85H339.008L333.448 62.24H325.328L344.068 10H352.188L341.708 39.22H362.658L352.178 10H360.378L379.118 62.24H379.138Z" fill="#0B796E"></path>
  <path d="M76 36.26L68.78 13.84L41.03 31.96L49.77 0H26.22L34.96 31.96L7.22 13.85L0 36.26L33.1 37.73L7.35 58.6L26.48 72.34L38 41.37L49.52 72.34L68.65 58.6L42.9 37.74L76 36.27V36.26Z" fill="#0B796E"></path>
  <path d="M26.2209 0L20.7109 22.66L34.9609 31.96L26.2209 0Z" fill="#0F2C29"></path>
  <path d="M0 36.2617L19.88 48.4517L33.1 37.7417L0 36.2617Z" fill="#0F2C29"></path>
  <path d="M26.4766 72.3412L43.9366 57.3613L38.0266 41.2812L26.4766 72.3412Z" fill="#0F2C29"></path>
  <path d="M68.7812 13.8516L45.5213 15.5416L41.0312 31.9616L68.7812 13.8516Z" fill="#0F2C29"></path>
  <path d="M68.6406 58.6005L59.9006 36.9805L42.8906 37.7405L68.6406 58.6005Z" fill="#0F2C29"></path>
</svg>
