<?xml version="1.0" encoding="UTF-8"?>
<svg xmlns="http://www.w3.org/2000/svg" width="255" height="45" viewBox="0 0 255 45" fill="none">
  <path d="M22.2981 40.3102C21.7718 41.6122 20.6035 42.5191 20.1478 42.83L22.2981 45L24.4485 42.83C23.9927 42.5126 22.8245 41.6122 22.2981 40.3102Z" fill="#001D49"></path>
  <path d="M2.09119 24.6149C2.40572 24.155 3.29796 22.9761 4.58817 22.4449C3.35573 21.9332 2.48275 20.845 2.13612 20.3397L-0.0078125 22.5032L2.08477 24.6149H2.09119Z" fill="#001D49"></path>
  <path d="M22.2981 4.57967C22.8052 3.33597 23.8836 2.45502 24.3843 2.10523L22.2981 0L20.2119 2.10523C20.7062 2.45502 21.791 3.33597 22.2981 4.57967Z" fill="#001D49"></path>
  <path d="M39.9952 22.4449C41.2854 22.9761 42.1841 24.155 42.4922 24.6149L44.5848 22.5032L42.4408 20.3397C42.0942 20.8385 41.2212 21.9332 39.9888 22.4449H39.9952Z" fill="#001D49"></path>
  <path d="M21.7332 21.8943C21.7332 21.8943 14.544 15.0734 10.423 20.1907C9.45375 21.3956 8.52942 22.0887 7.68211 22.432C8.52942 22.7753 9.45375 23.4619 10.423 24.6732C14.544 29.7906 21.7332 22.9696 21.7332 22.9696C21.7332 22.9696 14.9741 30.2246 20.045 34.3832C21.239 35.3613 21.9258 36.2941 22.266 37.1491C22.6062 36.2941 23.2866 35.3613 24.487 34.3832C29.558 30.2246 22.7988 22.9696 22.7988 22.9696L22.818 22.9502C22.818 22.9502 30.0073 29.7711 34.1283 24.6538C35.0975 23.449 36.0219 22.7559 36.8692 22.4125C36.0219 22.0692 35.0975 21.3826 34.1283 20.1713C30.7005 15.909 25.1546 19.9122 23.3829 21.3826L22.818 21.8749C22.818 21.8749 29.5772 14.62 24.5062 10.4613C23.3123 9.48323 22.6255 8.55045 22.2853 7.69541C21.9451 8.55045 21.2647 9.48323 20.0643 10.4613C14.9933 14.62 21.7525 21.8749 21.7525 21.8749L21.7332 21.8943Z" fill="#001D49"></path>
  <path d="M16.0011 16.1681C16.0011 16.1681 15.9369 16.1293 15.9048 16.1034C13.4656 14.5422 9.9801 14.0694 6.59731 15.8702C6.53954 15.9025 6.47535 15.9349 6.41758 15.9673L15.8342 6.46466C15.7957 6.52944 15.7636 6.59421 15.7315 6.65899C13.947 10.0727 14.4028 13.603 15.9497 16.0645C15.9497 16.0645 15.9883 16.1293 16.0075 16.1617L16.0011 16.1681Z" fill="#001D49"></path>
  <path d="M28.5117 28.7995C28.5117 28.7995 28.5502 28.8643 28.5759 28.8966C30.1228 31.3581 30.5914 34.8755 28.8069 38.2892C28.7748 38.3475 28.7428 38.4123 28.7107 38.4706L38.1273 28.9679C38.0631 29.0068 37.9989 29.0392 37.9347 29.0715C34.5519 30.8723 31.0536 30.4124 28.6144 28.8513C28.6144 28.8513 28.5502 28.8124 28.5181 28.793L28.5117 28.7995Z" fill="#001D49"></path>
  <path d="M28.5117 16.1487C28.5117 16.1487 28.5502 16.0839 28.5759 16.0515C30.1228 13.59 30.5914 10.0727 28.8069 6.65899C28.7748 6.60069 28.7428 6.53591 28.7107 6.47762L38.1273 15.9803C38.0631 15.9414 37.9989 15.909 37.9347 15.8766C34.5519 14.0759 31.0536 14.5358 28.6144 16.0969C28.6144 16.0969 28.5502 16.1357 28.5181 16.1552L28.5117 16.1487Z" fill="#001D49"></path>
  <path d="M16.0011 28.7736C16.0011 28.7736 15.9369 28.8124 15.9048 28.8383C13.4656 30.3995 9.9801 30.8723 6.59731 29.0715C6.53954 29.0392 6.47535 29.0068 6.41758 28.9744L15.8342 38.477C15.7957 38.4123 15.7636 38.3475 15.7315 38.2827C13.947 34.869 14.4028 31.3387 15.9497 28.8772C15.9497 28.8772 15.9883 28.8124 16.0075 28.7801L16.0011 28.7736Z" fill="#001D49"></path>
  <path d="M246.782 11.5755C246.782 11.0249 246.891 10.5002 247.103 10.0144C247.322 9.52857 247.61 9.10105 247.983 8.74478C248.355 8.38204 248.791 8.09702 249.286 7.88974C249.78 7.68245 250.319 7.57233 250.884 7.57233C251.449 7.57233 251.988 7.67598 252.482 7.88974C252.977 8.1035 253.42 8.38851 253.785 8.74478C254.158 9.10753 254.447 9.52857 254.665 10.0144C254.883 10.5002 254.986 11.0184 254.986 11.5755C254.986 12.1326 254.877 12.6508 254.665 13.1366C254.447 13.6224 254.158 14.0499 253.785 14.4062C253.413 14.769 252.977 15.054 252.482 15.2613C251.988 15.4685 251.449 15.5787 250.884 15.5787C250.319 15.5787 249.78 15.475 249.286 15.2613C248.791 15.0475 248.349 14.7625 247.983 14.4062C247.61 14.0435 247.322 13.6224 247.103 13.1366C246.885 12.6508 246.782 12.1326 246.782 11.5755ZM254.183 11.5755C254.183 11.1285 254.094 10.701 253.92 10.3059C253.747 9.91075 253.509 9.56096 253.214 9.26299C252.919 8.9715 252.572 8.73183 252.168 8.56341C251.77 8.38851 251.34 8.3043 250.884 8.3043C250.428 8.3043 250.005 8.38851 249.6 8.56341C249.202 8.7383 248.849 8.9715 248.554 9.26299C248.259 9.56096 248.021 9.90427 247.848 10.3059C247.675 10.701 247.585 11.1285 247.585 11.5755C247.585 12.0225 247.675 12.45 247.848 12.8451C248.021 13.2402 248.259 13.59 248.554 13.888C248.849 14.186 249.196 14.4192 249.6 14.5876C249.998 14.7625 250.428 14.8467 250.884 14.8467C251.34 14.8467 251.763 14.7625 252.168 14.5876C252.566 14.4127 252.919 14.1795 253.214 13.888C253.509 13.59 253.74 13.2467 253.92 12.8451C254.094 12.45 254.183 12.0225 254.183 11.5755ZM249.337 13.9074V9.23708H251.154C252.251 9.23708 252.797 9.67756 252.797 10.552C252.797 10.7723 252.765 10.9601 252.701 11.1156C252.636 11.2711 252.547 11.4006 252.431 11.5042C252.315 11.6079 252.187 11.6856 252.039 11.7439C251.892 11.8022 251.738 11.8411 251.571 11.8605L252.945 13.9074H252.039L250.666 11.8864H250.088V13.9074H249.337ZM250.088 11.2192H250.942C251.314 11.2192 251.59 11.1674 251.776 11.0573C251.962 10.9536 252.052 10.7723 252.052 10.5196C252.052 10.3059 251.969 10.1504 251.808 10.0468C251.648 9.94962 251.436 9.8978 251.179 9.8978H250.088V11.2192Z" fill="#001D49"></path>
  <path d="M67.2116 9.80063C66.4221 8.9715 65.5427 8.39499 64.5734 8.07111C63.6042 7.74723 62.4809 7.58529 61.2035 7.58529H54.2389V39.1831H58.8862V26.8432H61.2548C62.988 26.8432 64.3809 26.5517 65.4464 25.9752C66.512 25.3987 67.3593 24.5955 67.9948 23.5591C68.5404 22.704 68.8998 21.7842 69.0667 20.8061C69.2336 19.828 69.3171 18.6296 69.3171 17.211C69.3171 15.3196 69.163 13.8168 68.8613 12.7091C68.5596 11.6014 68.014 10.6298 67.2245 9.80063H67.2116ZM64.8687 19.4328C64.8238 20.0871 64.6761 20.6312 64.4386 21.0782C64.1947 21.551 63.816 21.9203 63.3025 22.1858C62.789 22.4514 62.0572 22.5874 61.1136 22.5874H58.8798V11.8476H61.2933C62.2048 11.8476 62.9045 11.9836 63.3859 12.2492C63.8738 12.5148 64.2332 12.9034 64.4772 13.4022C64.7211 13.9074 64.8559 14.4904 64.888 15.1576C64.9201 15.8248 64.9329 16.5244 64.9329 17.2628C64.9329 18.0596 64.9072 18.7851 64.8623 19.4393L64.8687 19.4328Z" fill="#001D49"></path>
  <path d="M89.8449 24.7575C91.3405 23.9737 92.374 22.9113 92.9645 21.6093C93.5551 20.3073 93.8504 18.7268 93.8504 16.8612C93.8504 10.6751 91.1159 7.58529 85.6533 7.58529H78.1881V39.1831H82.8354V25.6902H82.8868L89.9412 39.1831H94.8581L87.7395 25.5607C88.4007 25.4441 88.9848 25.2174 89.8513 24.7575H89.8449ZM82.829 11.8411H85.2425C86.8537 11.8411 87.9449 12.2556 88.5226 13.0848C88.7986 13.5317 88.9784 14.0564 89.0682 14.6588C89.1581 15.2677 89.203 15.9673 89.203 16.7641C89.203 17.5608 89.1581 18.2669 89.0682 18.8693C88.9784 19.4782 88.8115 19.9834 88.5676 20.398C88.2915 20.8126 87.9128 21.13 87.4314 21.3502C86.9436 21.5705 86.2952 21.6806 85.4736 21.6806H82.8354V11.8281L82.829 11.8411Z" fill="#001D49"></path>
  <path d="M147.147 29.6416H147.057L143.366 7.57881H138.449L145.054 39.1831H149.15L155.8 7.57881H150.883L147.147 29.6416Z" fill="#001D49"></path>
  <path d="M163.997 39.1831H177.843V34.6552H168.644V21.4992H176.661V17.2369H168.644V11.8411H177.843V7.57881H163.997V39.1831Z" fill="#001D49"></path>
  <path d="M197.652 26.623H197.562L190.552 7.57881H186.085V39.1831H190.732V20.1843H190.822L197.928 39.1831H202.299V7.57881H197.652V26.623Z" fill="#001D49"></path>
  <path d="M210.862 11.8411H219.149L210.406 35.1864V39.1831H224.207V34.9208H215.278L224.207 11.1739V7.57881H210.862V11.8411Z" fill="#001D49"></path>
  <path d="M237.642 7.57881L230.401 39.1766H235.048L236.416 32.3881H242.745L244.112 39.1766H248.759L241.519 7.57881H237.642ZM237.231 28.1258L239.51 16.6734H239.599L241.878 28.1258H237.231Z" fill="#001D49"></path>
  <path d="M116.946 7.16424C112.69 7.16424 108.774 8.90672 105.841 11.9771C102.991 15.0022 101.418 19.0701 101.418 23.4231C101.418 27.776 102.991 31.844 105.841 34.9079C108.774 38.0171 112.735 39.7207 116.946 39.7207C121.157 39.7207 125.156 38.0236 128.089 34.9079C130.939 31.8375 132.557 27.776 132.557 23.4231C132.557 19.0701 130.939 15.0022 128.089 11.9771C125.156 8.90672 121.195 7.16424 116.946 7.16424ZM116.946 34.9921C110.861 34.9921 106.098 29.9331 106.098 23.4231C106.098 16.9131 110.861 11.854 116.946 11.854C123.031 11.854 127.877 16.9519 127.877 23.4231C127.877 29.8942 123.07 34.9921 116.946 34.9921Z" fill="#001D49"></path>
</svg>
